<svg width="28" height="28" viewBox="0 0 28 28" fill="none" xmlns="http://www.w3.org/2000/svg">
<path d="M15.1667 4.66667H6.99999C6.38115 4.66667 5.78766 4.9125 5.35007 5.35009C4.91249 5.78767 4.66666 6.38116 4.66666 7V21C4.66666 21.6188 4.91249 22.2123 5.35007 22.6499C5.78766 23.0875 6.38115 23.3333 6.99999 23.3333H15.1667M19.8333 4.66667H21C21.6188 4.66667 22.2123 4.9125 22.6499 5.35009C23.0875 5.78767 23.3333 6.38116 23.3333 7V8.16667M23.3333 19.8333V21C23.3333 21.6188 23.0875 22.2123 22.6499 22.6499C22.2123 23.0875 21.6188 23.3333 21 23.3333H19.8333M23.3333 12.8333V15.1667M14 2.33334V25.6667" stroke="white" stroke-width="1.5" stroke-linecap="round" stroke-linejoin="round"/>
</svg>
