<svg width="17" height="16" viewBox="0 0 17 16" fill="none" xmlns="http://www.w3.org/2000/svg">
<path d="M11.4865 10.2927L11.0884 10.6891C11.0884 10.6891 10.1408 11.6306 7.55514 9.05985C4.96952 6.4891 5.91714 5.54761 5.91714 5.54761L6.16739 5.29736C6.78601 4.68311 6.84464 3.69611 6.30476 2.97511L5.20226 1.50248C4.53376 0.609982 3.24314 0.491857 2.47752 1.25311L1.10377 2.61811C0.724892 2.99611 0.471142 3.48436 0.501767 4.02686C0.580517 5.41548 1.20877 8.40185 4.71227 11.8861C8.42839 15.5804 11.9153 15.7274 13.3406 15.5944C13.7921 15.5524 14.1841 15.3231 14.5 15.0081L15.7425 13.7726C16.5825 12.9387 16.3463 11.5081 15.2718 10.9245L13.6005 10.0154C12.8953 9.6321 12.0378 9.74498 11.4865 10.2927Z" fill="white"/>
</svg>
